# xmcd
#
# Track frame offsets:
#	150
#	19570
#	30930
#	52785
#	73512
#	92810
#	113547
#	147720
#	167465
#	182870
#	199587
#	220545
#
# Disc length: 3105 seconds
#
# Revision: 2
# Processed by: cddbd v1.4PL0 Copyright (c) Steve Scherf et al.
# Submitted via: EasyCDDAExtractor 5.1.0
#
DISCID=940c1f0c
DTITLE=Various Artist - 笛子名家名曲大全6
DYEAR=1900
DGENRE=國樂
TTITLE0=曲祥 - 沂河歡歌
TTITLE1=曲祥 - 列車奔向北京城
TTITLE2=簡廣易 - 牧民新歌
TTITLE3=簡廣易 - 山村迎親人
TTITLE4=李鎮 - 鄂爾多斯的春天
TTITLE5=李鎮 - 大青山下
TTITLE6=李增光 - 南山吟
TTITLE7=蔣國基 - 水鄉船歌
TTITLE8=李大同 - 帕米爾的春天
TTITLE9=高明 - 棗園春色
TTITLE10=寧保生 - 春到湘江
TTITLE11=高明 - 陝北好
EXTD=
EXTT0=
EXTT1=
EXTT2=
EXTT3=
EXTT4=
EXTT5=
EXTT6=
EXTT7=
EXTT8=
EXTT9=
EXTT10=
EXTT11=
PLAYORDER=
